# Blender 4.2.3 LTS
# www.blender.org
mtllib Leg3.mtl
o Cube.001
v -1.607443 2.376598 0.169083
v -1.088286 2.448723 0.169083
v -1.607443 2.376598 -0.169083
v -1.088286 2.448723 -0.169083
v -1.439290 1.166225 0.169083
v -0.920133 1.238350 0.169083
v -1.439290 1.166225 -0.169083
v -0.920133 1.238350 -0.169083
v 0.000000 1.642944 -0.351210
v 0.000000 1.642944 0.351210
v 0.228436 1.597506 -0.351210
v 0.228436 1.597506 0.351210
v 0.422094 1.468107 -0.351210
v 0.422094 1.468107 0.351210
v 0.551492 1.274449 -0.351210
v 0.551492 1.274449 0.351210
v 0.596931 1.046013 -0.351210
v 0.596931 1.046013 0.351210
v 0.551492 0.817578 -0.351210
v 0.551492 0.817578 0.351210
v 0.422094 0.623920 -0.351210
v 0.422094 0.623919 0.351210
v 0.228436 0.494521 -0.351210
v 0.228436 0.494521 0.351210
v 0.000000 0.449083 -0.351210
v 0.000000 0.449083 0.351210
v -0.228435 0.494521 -0.351210
v -0.228435 0.494521 0.351210
v -0.422094 0.623920 -0.351210
v -0.422094 0.623920 0.351210
v -0.551492 0.817578 -0.351210
v -0.551492 0.817578 0.351210
v -0.596931 1.046013 -0.351210
v -0.596931 1.046013 0.351210
v -0.551492 1.274449 -0.351210
v -0.551492 1.274449 0.351210
v -0.422094 1.468107 -0.351210
v -0.422094 1.468107 0.351210
v -0.228436 1.597506 -0.351210
v -0.228436 1.597506 0.351210
v -0.185578 0.007042 0.408259
v -0.185578 0.145168 0.578943
v -0.356261 0.145168 0.408259
v -0.185578 0.025495 0.493489
v -0.270808 0.025495 0.408259
v -0.267201 0.043420 0.489882
v -0.270808 0.145168 0.556140
v -0.185578 0.076196 0.556140
v -0.267201 0.079115 0.533990
v -0.333459 0.076196 0.408259
v -0.333459 0.145168 0.493489
v -0.311309 0.079115 0.489882
v -0.185578 1.154436 0.578943
v -0.185578 1.292562 0.408259
v -0.356261 1.154436 0.408259
v -0.185578 1.223408 0.556140
v -0.270808 1.154436 0.556140
v -0.267201 1.220490 0.533990
v -0.270808 1.274109 0.408259
v -0.185578 1.274109 0.493489
v -0.267201 1.256184 0.489882
v -0.333459 1.154436 0.493489
v -0.333459 1.223408 0.408259
v -0.311309 1.220489 0.489882
v 0.801624 1.154436 0.408259
v 0.630940 1.292562 0.408259
v 0.630940 1.154436 0.578943
v 0.778822 1.223408 0.408259
v 0.778822 1.154436 0.493489
v 0.756672 1.220490 0.489882
v 0.630940 1.274109 0.493489
v 0.716170 1.274109 0.408259
v 0.712563 1.256184 0.489882
v 0.716170 1.154436 0.556140
v 0.630940 1.223408 0.556140
v 0.712564 1.220489 0.533990
v 0.370566 0.145168 0.578943
v 0.393037 0.007042 0.408259
v 0.381802 0.076105 0.556076
v 0.390026 0.025548 0.493601
v 0.630940 0.355875 0.578943
v 0.801624 0.337690 0.408259
v 0.716282 0.346783 0.556076
v 0.778757 0.340127 0.493601
v 0.508978 0.175181 0.578943
v 0.432463 0.015592 0.408259
v 0.718022 0.149010 0.408259
v 0.492128 0.101442 0.553698
v 0.596316 0.150120 0.553698
v 0.563632 0.098575 0.534746
v 0.530571 0.047333 0.408259
v 0.464431 0.043673 0.491914
v 0.542900 0.065737 0.489343
v 0.671986 0.140647 0.491914
v 0.634999 0.096124 0.408259
v 0.609140 0.096686 0.489343
v 0.593853 0.243865 0.578943
v 0.746884 0.172366 0.408259
v 0.670368 0.208116 0.556076
v 0.726382 0.181945 0.493601
v -0.185578 0.007042 0.000000
v -0.270808 0.025495 0.000000
v -0.333459 0.076196 -0.000000
v -0.356261 0.145168 0.000000
v -0.185578 1.292562 0.000000
v -0.270808 1.274109 0.000000
v -0.333459 1.223408 0.000000
v -0.356261 1.154436 0.000000
v 0.630940 1.292562 0.000000
v 0.716170 1.274109 0.000000
v 0.778822 1.223408 0.000000
v 0.801624 1.154436 0.000000
v 0.718022 0.149010 0.000000
v 0.634999 0.096124 0.000000
v 0.530571 0.047333 -0.000000
v 0.432463 0.015591 0.000000
v 0.393037 0.007042 0.000000
v 0.801624 0.337690 0.000000
v 0.746884 0.172366 0.000000
v -0.185578 0.007042 -0.408259
v -0.185578 0.145168 -0.578943
v -0.356261 0.145168 -0.408259
v -0.185578 0.025495 -0.493489
v -0.270808 0.025495 -0.408259
v -0.267201 0.043420 -0.489882
v -0.270808 0.145168 -0.556140
v -0.185578 0.076196 -0.556140
v -0.267201 0.079115 -0.533990
v -0.333459 0.076196 -0.408259
v -0.333459 0.145168 -0.493489
v -0.311309 0.079115 -0.489882
v -0.185578 1.154436 -0.578943
v -0.185578 1.292562 -0.408259
v -0.356261 1.154436 -0.408259
v -0.185578 1.223408 -0.556140
v -0.270808 1.154436 -0.556140
v -0.267201 1.220490 -0.533990
v -0.270808 1.274109 -0.408259
v -0.185578 1.274109 -0.493489
v -0.267201 1.256184 -0.489882
v -0.333459 1.154436 -0.493489
v -0.333459 1.223408 -0.408259
v -0.311309 1.220490 -0.489882
v 0.801624 1.154436 -0.408259
v 0.630940 1.292562 -0.408259
v 0.630940 1.154436 -0.578943
v 0.778822 1.223408 -0.408259
v 0.778822 1.154436 -0.493489
v 0.756672 1.220490 -0.489882
v 0.630940 1.274109 -0.493489
v 0.716170 1.274109 -0.408259
v 0.712564 1.256184 -0.489882
v 0.716171 1.154436 -0.556140
v 0.630940 1.223408 -0.556140
v 0.712564 1.220490 -0.533990
v 0.370566 0.145168 -0.578943
v 0.393037 0.007042 -0.408259
v 0.381802 0.076105 -0.556076
v 0.390026 0.025547 -0.493601
v 0.630940 0.355875 -0.578943
v 0.801624 0.337690 -0.408259
v 0.716282 0.346782 -0.556076
v 0.778757 0.340127 -0.493601
v 0.508978 0.175181 -0.578943
v 0.432463 0.015591 -0.408259
v 0.718022 0.149010 -0.408259
v 0.492128 0.101441 -0.553698
v 0.596316 0.150120 -0.553698
v 0.563632 0.098575 -0.534746
v 0.530571 0.047333 -0.408259
v 0.464431 0.043673 -0.491914
v 0.542900 0.065737 -0.489343
v 0.671986 0.140647 -0.491914
v 0.634999 0.096124 -0.408259
v 0.609140 0.096686 -0.489343
v 0.593853 0.243865 -0.578943
v 0.746884 0.172366 -0.408259
v 0.670368 0.208116 -0.556076
v 0.726382 0.181945 -0.493601
v -1.457001 1.127936 0.306549
v -1.276821 1.713959 0.306549
v -1.457001 1.127936 -0.306549
v -1.276821 1.713959 -0.306549
v -0.090734 0.707859 0.306549
v 0.089447 1.293882 0.306549
v -0.090734 0.707859 -0.306549
v 0.089447 1.293882 -0.306549
vn -0.1376 0.9905 -0.0000
vn -0.0000 -0.0000 -1.0000
vn 0.1376 -0.9905 -0.0000
vn -0.0000 -0.0000 1.0000
vn -0.9905 -0.1376 -0.0000
vn 0.9905 0.1376 -0.0000
vn -0.0000 0.7462 -0.6657
vn -0.0000 0.7462 0.6657
vn 0.2856 0.6894 0.6657
vn 0.2856 0.6894 -0.6657
vn 0.5276 0.5276 0.6657
vn 0.5276 0.5276 -0.6657
vn 0.6894 0.2856 0.6657
vn 0.6894 0.2856 -0.6657
vn 0.7462 -0.0000 0.6657
vn 0.7462 -0.0000 -0.6657
vn 0.6894 -0.2856 0.6657
vn 0.6894 -0.2856 -0.6657
vn 0.5276 -0.5276 0.6657
vn 0.5276 -0.5276 -0.6657
vn 0.2856 -0.6894 0.6657
vn 0.2856 -0.6894 -0.6657
vn -0.0000 -0.7462 0.6657
vn -0.0000 -0.7462 -0.6657
vn -0.2856 -0.6894 0.6657
vn -0.2856 -0.6894 -0.6657
vn -0.5276 -0.5276 0.6657
vn -0.5276 -0.5276 -0.6657
vn -0.6894 -0.2856 0.6657
vn -0.6894 -0.2856 -0.6657
vn -0.7462 -0.0000 0.6657
vn -0.7462 -0.0000 -0.6657
vn -0.6894 0.2856 0.6657
vn -0.6894 0.2856 -0.6657
vn -0.5276 0.5276 0.6657
vn -0.5276 0.5276 -0.6657
vn -0.2856 0.6894 0.6657
vn -0.2856 0.6894 -0.6657
vn 0.0211 -0.1716 0.9849
vn 0.0877 -0.1922 0.9774
vn 0.1282 -0.1039 0.9863
vn 0.1410 -0.0236 0.9897
vn 0.1288 0.1577 0.9791
vn -0.1288 0.1577 0.9791
vn -0.1288 -0.1577 0.9790
vn 0.1064 0.9943 -0.0000
vn -0.1064 0.9943 -0.0000
vn -0.1065 0.9886 0.1065
vn 0.1065 0.9886 0.1065
vn 0.9872 -0.1592 -0.0000
vn 0.9873 0.1590 -0.0000
vn 0.9791 0.1577 0.1288
vn 0.9791 -0.1572 0.1293
vn -0.1065 -0.9886 0.1065
vn -0.1036 -0.8979 0.4278
vn -0.3961 -0.8284 0.3961
vn -0.4277 -0.8979 0.1036
vn -0.1157 -0.5585 0.8214
vn -0.4303 -0.5144 0.7418
vn -0.4886 -0.1480 0.8599
vn -0.8599 -0.1480 0.4886
vn -0.7418 -0.5144 0.4303
vn -0.9791 -0.1577 0.1288
vn -0.8214 -0.5585 0.1157
vn -0.1157 0.5585 0.8214
vn -0.4303 0.5144 0.7418
vn -0.4886 0.1480 0.8599
vn -0.1036 0.8979 0.4277
vn -0.3961 0.8284 0.3961
vn -0.4277 0.8979 0.1036
vn -0.8214 0.5585 0.1157
vn -0.7418 0.5144 0.4303
vn -0.9791 0.1577 0.1288
vn -0.8599 0.1480 0.4886
vn 0.8214 0.5585 0.1157
vn 0.7418 0.5144 0.4303
vn 0.8599 0.1480 0.4886
vn 0.4277 0.8979 0.1036
vn 0.3961 0.8284 0.3961
vn 0.1036 0.8979 0.4277
vn 0.1157 0.5585 0.8214
vn 0.4303 0.5144 0.7418
vn 0.4886 0.1480 0.8599
vn 0.1583 -0.5614 0.8123
vn 0.3086 -0.6563 0.6884
vn 0.3203 -0.4571 0.8297
vn 0.2334 -0.8783 0.4172
vn 0.3156 -0.8821 0.3498
vn 0.2560 -0.9609 0.1052
vn 0.3573 -0.9302 0.0837
vn 0.4881 -0.8684 0.0869
vn 0.4771 -0.7991 0.3659
vn 0.5830 -0.8047 0.1124
vn 0.5258 -0.7289 0.4385
vn -0.1064 -0.9943 -0.0000
vn -0.4321 -0.9018 -0.0000
vn -0.8226 -0.5687 -0.0000
vn -0.9873 -0.1590 -0.0000
vn 0.4321 0.9018 -0.0000
vn 0.8226 0.5687 -0.0000
vn 0.0719 -0.5782 0.8127
vn 0.1083 -0.8957 0.4312
vn 0.1111 -0.9878 0.1092
vn 0.5841 -0.8117 -0.0000
vn 0.4813 -0.8766 -0.0000
vn 0.3663 -0.9305 -0.0000
vn 0.2602 -0.9656 -0.0000
vn 0.4370 -0.3301 0.8367
vn 0.7171 -0.5102 0.4747
vn 0.8147 -0.5659 0.1268
vn 0.5111 -0.0836 0.8555
vn 0.8605 -0.1383 0.4903
vn 0.1066 -0.9943 -0.0000
vn -0.8226 0.5687 -0.0000
vn -0.9873 0.1590 -0.0000
vn -0.4321 0.9018 -0.0000
vn 0.8224 -0.5688 -0.0000
vn 0.0211 -0.1716 -0.9849
vn -0.1288 -0.1577 -0.9790
vn -0.1288 0.1577 -0.9791
vn 0.1288 0.1577 -0.9791
vn 0.1410 -0.0236 -0.9897
vn 0.1282 -0.1039 -0.9863
vn 0.0877 -0.1922 -0.9774
vn 0.1065 0.9886 -0.1065
vn -0.1065 0.9886 -0.1065
vn 0.9791 -0.1572 -0.1293
vn 0.9791 0.1577 -0.1288
vn -0.1065 -0.9886 -0.1065
vn -0.4277 -0.8979 -0.1036
vn -0.3961 -0.8284 -0.3961
vn -0.1036 -0.8979 -0.4278
vn -0.4303 -0.5144 -0.7418
vn -0.1157 -0.5585 -0.8214
vn -0.4886 -0.1480 -0.8599
vn -0.7418 -0.5144 -0.4303
vn -0.8599 -0.1480 -0.4886
vn -0.9791 -0.1577 -0.1288
vn -0.8214 -0.5585 -0.1157
vn -0.4886 0.1480 -0.8599
vn -0.4303 0.5144 -0.7418
vn -0.1157 0.5585 -0.8214
vn -0.3961 0.8284 -0.3961
vn -0.1036 0.8979 -0.4277
vn -0.4277 0.8979 -0.1036
vn -0.7418 0.5144 -0.4303
vn -0.8214 0.5585 -0.1157
vn -0.9791 0.1577 -0.1288
vn -0.8599 0.1480 -0.4886
vn 0.8599 0.1480 -0.4886
vn 0.7418 0.5144 -0.4303
vn 0.8214 0.5585 -0.1157
vn 0.3961 0.8284 -0.3961
vn 0.4277 0.8979 -0.1036
vn 0.1036 0.8979 -0.4277
vn 0.4303 0.5144 -0.7418
vn 0.1157 0.5585 -0.8214
vn 0.4886 0.1480 -0.8599
vn 0.3203 -0.4571 -0.8297
vn 0.3086 -0.6563 -0.6884
vn 0.1583 -0.5614 -0.8123
vn 0.3156 -0.8821 -0.3498
vn 0.2334 -0.8783 -0.4172
vn 0.2560 -0.9609 -0.1052
vn 0.3573 -0.9302 -0.0837
vn 0.4771 -0.7991 -0.3659
vn 0.4881 -0.8684 -0.0869
vn 0.5830 -0.8047 -0.1124
vn 0.5258 -0.7289 -0.4385
vn 0.0719 -0.5782 -0.8127
vn 0.1083 -0.8957 -0.4312
vn 0.1111 -0.9878 -0.1092
vn 0.4370 -0.3301 -0.8367
vn 0.7171 -0.5102 -0.4747
vn 0.8147 -0.5659 -0.1268
vn 0.5111 -0.0836 -0.8555
vn 0.8605 -0.1383 -0.4903
vn -0.9558 0.2939 -0.0000
vn 0.9558 -0.2939 -0.0000
vn -0.2939 -0.9558 -0.0000
vn 0.2939 0.9558 -0.0000
vt 0.375000 0.000000
vt 0.625000 0.000000
vt 0.625000 0.250000
vt 0.375000 0.250000
vt 0.625000 0.500000
vt 0.375000 0.500000
vt 0.625000 0.750000
vt 0.375000 0.750000
vt 0.625000 1.000000
vt 0.375000 1.000000
vt 0.125000 0.500000
vt 0.125000 0.750000
vt 0.875000 0.500000
vt 0.875000 0.750000
vt 0.974018 0.162188
vt 0.974018 0.243193
vt 0.955508 0.243193
vt 0.955508 0.162188
vt 0.936998 0.243193
vt 0.936998 0.162188
vt 0.918488 0.243193
vt 0.918488 0.162188
vt 0.899977 0.243193
vt 0.899977 0.162188
vt 0.881467 0.243193
vt 0.881467 0.162188
vt 0.862957 0.243193
vt 0.862957 0.162188
vt 0.844447 0.243193
vt 0.844447 0.162188
vt 0.825937 0.243193
vt 0.825937 0.162188
vt 0.807426 0.243193
vt 0.807426 0.162188
vt 0.788916 0.243193
vt 0.788916 0.162188
vt 0.770406 0.243193
vt 0.770406 0.162188
vt 0.751896 0.243193
vt 0.751896 0.162188
vt 0.733386 0.243193
vt 0.733386 0.162188
vt 0.714876 0.243193
vt 0.714876 0.162188
vt 0.779097 0.153816
vt 0.751896 0.159227
vt 0.724695 0.153816
vt 0.701635 0.138408
vt 0.686227 0.115348
vt 0.680817 0.088147
vt 0.686227 0.060947
vt 0.701635 0.037887
vt 0.724695 0.022479
vt 0.751896 0.017068
vt 0.779097 0.022479
vt 0.802156 0.037887
vt 0.817564 0.060947
vt 0.822975 0.088147
vt 0.817564 0.115348
vt 0.802156 0.138408
vt 0.696365 0.243193
vt 0.696365 0.162188
vt 0.677855 0.243193
vt 0.677855 0.162188
vt 0.899977 0.159227
vt 0.927178 0.153816
vt 0.950238 0.138408
vt 0.965646 0.115348
vt 0.971056 0.088147
vt 0.965646 0.060947
vt 0.950238 0.037887
vt 0.927178 0.022479
vt 0.899977 0.017068
vt 0.872777 0.022479
vt 0.849717 0.037887
vt 0.834309 0.060947
vt 0.828898 0.088147
vt 0.834309 0.115348
vt 0.849717 0.138408
vt 0.872777 0.153816
vt 0.528582 0.060458
vt 0.563094 0.067942
vt 0.584257 0.085068
vt 0.593504 0.112997
vt 0.593504 0.312113
vt 0.389911 0.312113
vt 0.389911 0.060458
vt 0.593504 0.346553
vt 0.389911 0.346553
vt 0.636063 0.108462
vt 0.636063 0.312113
vt 0.636063 0.108462
vt 0.389911 0.026018
vt 0.389911 0.030619
vt 0.369559 0.035088
vt 0.368659 0.030619
vt 0.389911 0.043260
vt 0.369559 0.043988
vt 0.368659 0.060458
vt 0.353038 0.060458
vt 0.358561 0.043988
vt 0.347352 0.060458
vt 0.353038 0.043260
vt 0.389911 0.329310
vt 0.369559 0.328583
vt 0.368659 0.312113
vt 0.389911 0.341952
vt 0.369559 0.337483
vt 0.368659 0.341952
vt 0.353038 0.329310
vt 0.358561 0.328583
vt 0.347352 0.312113
vt 0.353038 0.312113
vt 0.630377 0.329310
vt 0.624855 0.328583
vt 0.630377 0.312113
vt 0.614756 0.341952
vt 0.613856 0.337483
vt 0.593504 0.341952
vt 0.593504 0.329310
vt 0.613856 0.328583
vt 0.614756 0.312113
vt 0.558892 0.049555
vt 0.576721 0.048841
vt 0.584871 0.061693
vt 0.551986 0.035151
vt 0.571552 0.040653
vt 0.544015 0.028149
vt 0.568478 0.036064
vt 0.594516 0.048229
vt 0.588068 0.048370
vt 0.615218 0.061416
vt 0.603739 0.059331
vt 0.347352 0.060458
vt 0.531383 0.043238
vt 0.533434 0.030632
vt 0.534185 0.026018
vt 0.615218 0.061416
vt 0.603335 0.076154
vt 0.617302 0.069628
vt 0.622414 0.067240
vt 0.614784 0.110730
vt 0.630361 0.109070
s 0
usemtl METAL
f 1/1/1 2/2/1 4/3/1 3/4/1
f 3/4/2 4/3/2 8/5/2 7/6/2
f 7/6/3 8/5/3 6/7/3 5/8/3
f 5/8/4 6/7/4 2/9/4 1/10/4
f 3/11/5 7/6/5 5/8/5 1/12/5
f 8/5/6 4/13/6 2/14/6 6/7/6
s 1
f 9/15/7 10/16/8 12/17/9 11/18/10
f 11/18/10 12/17/9 14/19/11 13/20/12
f 13/20/12 14/19/11 16/21/13 15/22/14
f 15/22/14 16/21/13 18/23/15 17/24/16
f 17/24/16 18/23/15 20/25/17 19/26/18
f 19/26/18 20/25/17 22/27/19 21/28/20
f 21/28/20 22/27/19 24/29/21 23/30/22
f 23/30/22 24/29/21 26/31/23 25/32/24
f 25/32/24 26/31/23 28/33/25 27/34/26
f 27/34/26 28/33/25 30/35/27 29/36/28
f 29/36/28 30/35/27 32/37/29 31/38/30
f 31/38/30 32/37/29 34/39/31 33/40/32
f 33/40/32 34/39/31 36/41/33 35/42/34
f 35/42/34 36/41/33 38/43/35 37/44/36
f 12/45/9 10/46/8 40/47/37 38/48/35 36/49/33 34/50/31 32/51/29 30/52/27 28/53/25 26/54/23 24/55/21 22/56/19 20/57/17 18/58/15 16/59/13 14/60/11
f 37/44/36 38/43/35 40/61/37 39/62/38
f 39/62/38 40/61/37 10/63/8 9/64/7
f 9/65/7 11/66/10 13/67/12 15/68/14 17/69/16 19/70/18 21/71/20 23/72/22 25/73/24 27/74/26 29/75/28 31/76/30 33/77/32 35/78/34 37/79/36 39/80/38
f 77/81/39 85/82/40 97/83/41 81/84/42 67/85/43 53/86/44 42/87/45
f 109/88/46 105/89/47 54/89/48 66/88/49
f 118/90/50 112/91/51 65/91/52 82/92/53
f 41/93/54 44/94/55 46/95/56 45/96/57
f 44/94/55 48/97/58 49/98/59 46/95/56
f 42/87/45 47/99/60 49/98/59 48/97/58
f 47/99/60 51/100/61 52/101/62 49/98/59
f 43/102/63 50/103/64 52/101/62 51/100/61
f 50/103/64 45/96/57 46/95/56 52/101/62
f 46/95/56 49/98/59 52/101/62
f 53/86/44 56/104/65 58/105/66 57/106/67
f 56/104/65 60/107/68 61/108/69 58/105/66
f 54/89/48 59/109/70 61/108/69 60/107/68
f 59/109/70 63/110/71 64/111/72 61/108/69
f 55/112/73 62/113/74 64/111/72 63/110/71
f 62/113/74 57/106/67 58/105/66 64/111/72
f 58/105/66 61/108/69 64/111/72
f 65/91/52 68/114/75 70/115/76 69/116/77
f 68/114/75 72/117/78 73/118/79 70/115/76
f 66/88/49 71/119/80 73/118/79 72/117/78
f 71/119/80 75/120/81 76/121/82 73/118/79
f 67/85/43 74/122/83 76/121/82 75/120/81
f 74/122/83 69/116/77 70/115/76 76/121/82
f 70/115/76 73/118/79 76/121/82
f 85/82/40 88/123/84 90/124/85 89/125/86
f 88/123/84 92/126/87 93/127/88 90/124/85
f 86/128/89 91/129/90 93/127/88 92/126/87
f 91/129/90 95/130/91 96/131/92 93/127/88
f 87/132/93 94/133/94 96/131/92 95/130/91
f 94/133/94 89/125/86 90/124/85 96/131/92
f 90/124/85 93/127/88 96/131/92
f 101/93/95 41/93/54 45/96/57 102/96/96
f 102/96/96 45/96/57 50/103/64 103/103/97
f 103/103/97 50/103/64 43/102/63 104/134/98
f 42/87/45 53/86/44 57/106/67 47/99/60
f 47/99/60 57/106/67 62/113/74 51/100/61
f 51/100/61 62/113/74 55/112/73 43/102/63
f 109/88/46 66/88/49 72/117/78 110/117/99
f 110/117/99 72/117/78 68/114/75 111/114/100
f 111/114/100 68/114/75 65/91/52 112/91/51
f 66/88/49 54/89/48 60/107/68 71/119/80
f 71/119/80 60/107/68 56/104/65 75/120/81
f 75/120/81 56/104/65 53/86/44 67/85/43
f 85/82/40 77/81/39 79/135/101 88/123/84
f 88/123/84 79/135/101 80/136/102 92/126/87
f 92/126/87 80/136/102 78/137/103 86/128/89
f 113/138/104 87/132/93 95/130/91 114/130/105
f 114/130/105 95/130/91 91/129/90 115/129/106
f 115/129/106 91/129/90 86/128/89 116/128/107
f 97/83/41 85/82/40 89/125/86 99/139/108
f 99/139/108 89/125/86 94/133/94 100/140/109
f 100/140/109 94/133/94 87/132/93 98/141/110
f 81/84/42 97/83/41 99/139/108 83/142/111
f 83/142/111 99/139/108 100/140/109 84/143/112
f 84/143/112 100/140/109 98/141/110 82/92/53
f 77/81/39 42/87/45 48/97/58 79/135/101
f 79/135/101 48/97/58 44/94/55 80/136/102
f 80/136/102 44/94/55 41/93/54 78/137/103
f 67/85/43 81/84/42 83/142/111 74/122/83
f 74/122/83 83/142/111 84/143/112 69/116/77
f 69/116/77 84/143/112 82/92/53 65/91/52
f 101/93/95 117/137/113 78/137/103 41/93/54
f 63/110/71 107/110/114 108/112/115 55/112/73
f 59/109/70 106/109/116 107/110/114 63/110/71
f 54/89/48 105/89/47 106/109/116 59/109/70
f 43/102/63 55/112/73 108/112/115 104/134/98
f 87/132/93 113/138/104 119/141/117 98/141/110
f 98/141/110 119/141/117 118/90/50 82/92/53
f 78/137/103 117/137/113 116/128/107 86/128/89
f 156/81/118 121/87/119 132/86/120 146/85/121 160/84/122 176/83/123 164/82/124
f 109/88/46 145/88/125 133/89/126 105/89/47
f 118/90/50 161/92/127 144/91/128 112/91/51
f 120/93/129 124/96/130 125/95/131 123/94/132
f 123/94/132 125/95/131 128/98/133 127/97/134
f 121/87/119 127/97/134 128/98/133 126/99/135
f 126/99/135 128/98/133 131/101/136 130/100/137
f 122/102/138 130/100/137 131/101/136 129/103/139
f 129/103/139 131/101/136 125/95/131 124/96/130
f 125/95/131 131/101/136 128/98/133
f 132/86/120 136/106/140 137/105/141 135/104/142
f 135/104/142 137/105/141 140/108/143 139/107/144
f 133/89/126 139/107/144 140/108/143 138/109/145
f 138/109/145 140/108/143 143/111/146 142/110/147
f 134/112/148 142/110/147 143/111/146 141/113/149
f 141/113/149 143/111/146 137/105/141 136/106/140
f 137/105/141 143/111/146 140/108/143
f 144/91/128 148/116/150 149/115/151 147/114/152
f 147/114/152 149/115/151 152/118/153 151/117/154
f 145/88/125 151/117/154 152/118/153 150/119/155
f 150/119/155 152/118/153 155/121/156 154/120/157
f 146/85/121 154/120/157 155/121/156 153/122/158
f 153/122/158 155/121/156 149/115/151 148/116/150
f 149/115/151 155/121/156 152/118/153
f 164/82/124 168/125/159 169/124/160 167/123/161
f 167/123/161 169/124/160 172/127/162 171/126/163
f 165/128/164 171/126/163 172/127/162 170/129/165
f 170/129/165 172/127/162 175/131/166 174/130/167
f 166/132/168 174/130/167 175/131/166 173/133/169
f 173/133/169 175/131/166 169/124/160 168/125/159
f 169/124/160 175/131/166 172/127/162
f 101/93/95 102/96/96 124/96/130 120/93/129
f 102/96/96 103/103/97 129/103/139 124/96/130
f 103/103/97 104/134/98 122/102/138 129/103/139
f 121/87/119 126/99/135 136/106/140 132/86/120
f 126/99/135 130/100/137 141/113/149 136/106/140
f 130/100/137 122/102/138 134/112/148 141/113/149
f 109/88/46 110/117/99 151/117/154 145/88/125
f 110/117/99 111/114/100 147/114/152 151/117/154
f 111/114/100 112/91/51 144/91/128 147/114/152
f 145/88/125 150/119/155 139/107/144 133/89/126
f 150/119/155 154/120/157 135/104/142 139/107/144
f 154/120/157 146/85/121 132/86/120 135/104/142
f 164/82/124 167/123/161 158/135/170 156/81/118
f 167/123/161 171/126/163 159/136/171 158/135/170
f 171/126/163 165/128/164 157/137/172 159/136/171
f 113/138/104 114/130/105 174/130/167 166/132/168
f 114/130/105 115/129/106 170/129/165 174/130/167
f 115/129/106 116/128/107 165/128/164 170/129/165
f 176/83/123 178/139/173 168/125/159 164/82/124
f 178/139/173 179/140/174 173/133/169 168/125/159
f 179/140/174 177/141/175 166/132/168 173/133/169
f 160/84/122 162/142/176 178/139/173 176/83/123
f 162/142/176 163/143/177 179/140/174 178/139/173
f 163/143/177 161/92/127 177/141/175 179/140/174
f 156/81/118 158/135/170 127/97/134 121/87/119
f 158/135/170 159/136/171 123/94/132 127/97/134
f 159/136/171 157/137/172 120/93/129 123/94/132
f 146/85/121 153/122/158 162/142/176 160/84/122
f 153/122/158 148/116/150 163/143/177 162/142/176
f 148/116/150 144/91/128 161/92/127 163/143/177
f 101/93/95 120/93/129 157/137/172 117/137/113
f 142/110/147 134/112/148 108/112/115 107/110/114
f 138/109/145 142/110/147 107/110/114 106/109/116
f 133/89/126 138/109/145 106/109/116 105/89/47
f 122/102/138 104/134/98 108/112/115 134/112/148
f 166/132/168 177/141/175 119/141/117 113/138/104
f 177/141/175 161/92/127 118/90/50 119/141/117
f 157/137/172 165/128/164 116/128/107 117/137/113
s 0
f 180/1/178 181/2/178 183/3/178 182/4/178
f 182/4/2 183/3/2 187/5/2 186/6/2
f 186/6/179 187/5/179 185/7/179 184/8/179
f 184/8/4 185/7/4 181/9/4 180/10/4
f 182/11/180 186/6/180 184/8/180 180/12/180
f 187/5/181 183/13/181 181/14/181 185/7/181
