# Blender v3.6.5 OBJ File: ''
# www.blender.org
mtllib Plane.mtl
o Cube
v 20.021236 40.042473 -20.021236
v 20.021236 0.000000 20.021236
v -20.021236 40.042473 -20.021236
v -20.021236 0.000000 20.021236
v 20.021236 3.641337 -20.021236
v 20.021236 0.000000 -16.379900
v 20.021236 3.071706 -19.976406
v 20.021236 2.516102 -19.843018
v 20.021236 1.988205 -19.624353
v 20.021236 1.501013 -19.325802
v 20.021236 1.066523 -18.954714
v 20.021236 0.695434 -18.520224
v 20.021236 0.396882 -18.033031
v 20.021236 0.178220 -17.505135
v 20.021236 0.044831 -16.949532
v -20.021236 0.000000 -16.379900
v -20.021236 3.641337 -20.021236
v -20.021236 0.044831 -16.949532
v -20.021236 0.178220 -17.505135
v -20.021236 0.396882 -18.033031
v -20.021236 0.695434 -18.520224
v -20.021236 1.066523 -18.954714
v -20.021236 1.501013 -19.325802
v -20.021236 1.988205 -19.624353
v -20.021236 2.516102 -19.843018
v -20.021236 3.071707 -19.976406
vt 0.125000 0.522734
vt 0.125000 0.750000
vt 0.375000 0.750000
vt 0.375000 0.522734
vt 0.397734 0.500000
vt 0.397734 0.250000
vt 0.394178 0.250000
vt 0.394178 0.500000
vt 0.390709 0.250000
vt 0.390709 0.500000
vt 0.387413 0.250000
vt 0.387413 0.500000
vt 0.384371 0.250000
vt 0.384371 0.500000
vt 0.375000 0.250000
vt 0.375000 0.500000
vt 0.125000 0.500000
vt 0.125000 0.509371
vt 0.375000 0.509371
vt 0.125000 0.512413
vt 0.375000 0.512413
vt 0.125000 0.515709
vt 0.375000 0.515709
vt 0.125000 0.519178
vt 0.375000 0.519178
vt 0.625000 0.500000
vt 0.625000 0.250000
vn 0.0000 0.9992 0.0393
vn 0.0000 1.0000 0.0000
vn 0.0000 0.0393 0.9992
vn 0.0000 0.1564 0.9877
vn -0.0000 0.3090 0.9511
vn -0.0000 0.4540 0.8910
vn 0.0000 0.5878 0.8090
vn 0.0000 0.7071 0.7071
vn 0.0000 0.8090 0.5878
vn 0.0000 0.8910 0.4540
vn 0.0000 0.9511 0.3090
vn 0.0000 0.9877 0.1564
vn 0.0000 0.0000 1.0000
usemtl Material
s 1
f 16/1/1 4/2/2 2/3/2 6/4/1
f 5/5/3 17/6/3 26/7/4 7/8/4
f 7/8/4 26/7/4 25/9/5 8/10/5
f 8/10/5 25/9/5 24/11/6 9/12/6
f 9/12/6 24/11/6 23/13/7 10/14/7
f 10/14/7 23/13/7 22/15/8 11/16/8
f 11/16/8 22/17/8 21/18/9 12/19/9
f 12/19/9 21/18/9 20/20/10 13/21/10
f 13/21/10 20/20/10 19/22/11 14/23/11
f 14/23/11 19/22/11 18/24/12 15/25/12
f 15/25/12 18/24/12 16/1/1 6/4/1
f 17/6/3 5/5/3 1/26/13 3/27/13
